<?xml version="1.0" encoding="utf-8"?>
<!-- Generator: Adobe Illustrator 19.1.1, SVG Export Plug-In . SVG Version: 6.00 Build 0)  -->
<svg version="1.1" id="Layer_1" xmlns="http://www.w3.org/2000/svg" xmlns:xlink="http://www.w3.org/1999/xlink" x="0px" y="0px"
	 viewBox="0 0 396.9 198.4" style="enable-background:new 0 0 396.9 198.4;" xml:space="preserve">
<style type="text/css">
	.st0{fill:#8100F1;}
</style>
<path class="st0" d="M380.9,99c-3-1.3-5.6-1.9-7.6-2c0.3-1.1,0.6-2.5,0.6-3.7c0-1.5,0-2.8-0.2-4.1c1.2,0.4,4.3,1.4,9.6,1.6
	c1.4,0,2.7-0.1,3.9-0.3c4.5-1,6.8-4.3,6.2-9.1c-0.2-2-1.4-4.8-4.2-6.1c0,0-0.1,0-0.2-0.1c-6.3-2.6-9.1-7.5-13.7-12.3
	c-5-5.3-10.5-9.9-16.6-13.8c-21.4-13.5-48.5-16.2-73.1-10.7c-15.4,3.5-30,10-43.4,18.3c-13,8.1-23.4,20.6-37.4,26.7
	c-1.1,0.5-2.1,1-3.1,1.6c-1.4,0.9-2.9,2.2-4.5,3.9c-8.2-7.8-19.2-17.6-21.6-18.6c-1.5-0.6-3.3-1.1-5.1-1.4
	c-3.2-0.4-7.6-0.3-10.6,2.9c-2.9,3-0.4,8.2,0.9,11c0.2,0.4,0.4,0.8,0.5,1.1c0.1,0.2,0,0.3-0.1,0.4c-0.3,0.4-1.5,0.7-3,0.5l-0.2,0
	c-1.1-0.2-9.2-3-12.3-4.3c0.6-0.6,1.1-1.2,1.6-1.7c0.3-0.3,0.6-0.7,0.9-0.9c3-3.3,4.9-5.5,7.2-8.7c2.4-3.3,2.5-4.3,0.6-6.6
	c-0.3-0.4-0.7-0.6-1.2-0.7c-1.2-0.2-3,0.6-5.7,2c-2.9,1.6-8.6,3.3-10.6,3.1c-0.4-0.1-0.5-0.2-0.6-0.2c-0.2-0.2-0.3-0.4-0.3-0.7
	c0-0.6,0.5-1.9,3-4.2c2.4-2.4,4.6-3.9,5.9-4.8l0.6-0.4c1.6-1.1,2.2-2.6,1.8-4.2c-0.5-1.7-1.2-2.6-2.1-2.7c-0.3,0-0.7,0-1,0.2
	c-0.2,0.1-0.5,0.2-0.8,0.4c-2,0.9-5.6,2.7-8.9,6.2c-3.6,2.2-8.5,4.6-11.8,4.2c-0.4-0.1-0.8-0.2-1.2-0.3c-0.2-0.1-0.4-0.3-0.5-0.5
	c-0.4-1.5,1.7-5.5,5.6-10.6c1.4-1.7,2.1-2.8,2.3-3.3c0.3-0.7,0.2-1.5-0.2-2.4c-0.4-0.7-1-1.3-1.5-1.6c-0.1-0.1-0.3-0.1-0.4-0.1
	c-0.8-0.1-1.6,0.4-3.6,2c-2.2,1.7-11.2,7.5-15.4,6.9c-0.3,0-0.5-0.1-0.7-0.2c-1.1-0.5-1.3-1.6-0.7-3.1c1.7-3.9,6.7-5.4,10.8-4.9
	c0.7,0.1,1.3,0.2,1.9,0.4c0.2,0.1,0.3,0.1,0.5,0.1c0.9,0.1,1.5-0.3,1.9-1.1c0.5-1.2,0.5-2.6-0.2-3.9c-0.6-1.3-1.7-2.3-3.1-2.9
	c-0.7-0.3-1.5-0.5-2.3-0.6c-5-0.7-11.2,2.4-13.3,6.7c-2.2,1.4-4.4,2-6.3,1.7c-0.1,0-0.3,0-0.4-0.1c-1.5-0.3-2.7-1-3.6-2
	c0.1-0.2,0.2-0.3,0.3-0.5c0.1-0.2,0.2-0.3,0.3-0.5c1.9-3.8,3.4-7,2.5-8.9c-0.3-0.7-1-1.1-1.9-1.3c-0.1,0-0.2,0-0.2,0
	c-2.1-0.3-3.9,1.3-4.5,4c-0.5,2-0.4,5,1.1,7.5c-2,3.3-4,5.6-4.9,5.5c-0.2,0-0.3-0.2-0.4-0.4c-0.9-1.5-1.1-6.6,0.3-11.5
	c0.3-1,0.1-1.2-1.3-1.7c-0.6-0.2-0.9-0.3-1.3-0.4c-0.6-0.1-1,0.1-1.4,0.6c-0.5,0.7-1.1,1.4-1.7,2.2c-0.8,1-1.6,2.1-2.4,3.1
	c-1.5,1.8-3.5,4.3-4.5,4.1c-0.1,0-0.1,0-0.2-0.1c-0.5-0.9,0.2-4.2,2.1-9.9c1-3.1,0-4-1.8-5.7c-0.4-0.3-0.8-0.6-1.2-0.7
	c-0.7-0.1-1.4,0.5-2.3,1.9c-1.5,2.6-3.5,6.7-4,11.9c-0.1,0.5-0.1,1,0,1.6c-3.1,6-5.1,7.5-6.2,7.7c-0.2,0-0.4,0-0.6,0
	c-2.3-0.3-5.1-4.8-5.9-14l0-0.1c-0.1-1.3,0.3-2.6,1.2-3.6c1.1-1.4,2.3-2.9,3.3-4.5c2.5-3.8,3.8-7.8,3.4-10.5c-0.5-3-2.6-4.3-4.2-4.6
	c-0.1,0-0.1,0-0.2,0c-2.1-0.2-4.4,1.5-6.9,5.1c-2,2.8-4.9,10.7-4.1,20.1c0,0.5,0.1,0.9,0.2,1.4c-0.7-1.3-1.5-2.6-2.2-4
	c-3-5.5-6.2-11.2-7.9-14l-0.5-0.8c-1.7-2.7-2.5-4-5.7-4.4c-0.5-0.1-1.2-0.1-1.9-0.2c-2.2-0.1-3.2,0.1-3.6,0.8c-0.5,0.8,0,2,1.2,4.3
	l0.4,0.7c-0.6,3.5,0,9.9,0.7,17.3c0.2,2.4,0.5,4.9,0.7,7.4c0,0.2-0.1,0.3-0.3,0.4c-1,0.3-2,0.5-3,0.7c-1.5,0.3-1.7,0.9-1.7,1.2
	c0,0.5,0.5,0.9,1.3,1c0.1,0,0.2,0,0.4,0c1.1,0,2.1,0,3.2-0.2c0.2,0,0.4,0.1,0.4,0.3c0,0,0,0.1,0,0.1c0.5,6.7-4,10.2-7.9,14.7
	c-4.4,5-8,10.6-10.8,16.7c-5.4,11.7-7.4,25.1-4.8,37.8c4,19.4,18.3,36,36.2,44.6s38.8,9.8,58.1,5.2c19.3-4.6,37-14.6,52.4-27.1
	c4.2-3.4,8.3-7,13.2-9.4c6.7-3.2,11.5-1.3,18.3-0.9c0.4,6,2.2,11.2,5.7,14.6c4.9,4.7,12,5.5,17.6,1.4c5.1-3.7,0.3-8.2-2.4-5.6
	c-2.7,2.6-7.7,6.8-11.3,3.1c-2.3-2.4-2.7-7.5-1.7-13.7c10-0.8,17.1-3.5,23.2-6.2c1.5,1.8,2.3,2.7,3.7,4.6c2.4,3,6-0.2,3.9-2.2
	c-2.1-2.1-9.6-9.6-11.8-11.9c-1.7-1.7-4.8-0.8-2.3,2c0.8,0.9,2.6,2.9,4.6,5.2c-4.5,2.1-9.9,4.5-20.7,5.7c1.7-8.1,5.2-16.8,9.7-24
	c15.9,14.9,29.9,30.4,49.7,43.7c1.4,0.9,2.1,2.5,2.2,4.1c0,0.2,0,0.4,0,0.6c0.3,2.5,1.9,4.5,3.4,5.5c1.9,1.1,3.6,1.1,4.8,0.8
	c0.8-0.2,1.4-0.5,1.7-0.6c0.8-0.3,1-1.1,0.8-1.7c-0.1-0.5-0.5-0.8-1-0.6c-0.1,0-0.1,0-0.2,0.1c-0.4,0.1-1.7,0.3-2.1-1.2
	c-0.2-0.7-0.1-2.1,0.6-3.3c0.4-0.7,1.3-1.7,2.9-2.1c0.6-0.1,1.4-0.2,2.2-0.1c1.2,0.1,3.3,0.7,6.4,1.7c-1.5,0.4-2,0.8-2.4,1.6
	c-0.7,1.8-2.8,6.9-4.4,10.6c-1.2-0.5-2.7-1.2-4.6-2.1c-0.7-0.3-1.2-0.5-1.7-0.4c-0.4,0.1-0.6,0.3-0.7,0.7c-0.1,0.5,0.3,1.1,0.9,1.5
	c1.8,1.1,3.3,2,5,2.8c-0.4,1-0.8,1.9-1.2,2.7c-2.6,6.1-5.7,12.7-9.4,13.6c-0.6,0.1-1.1,0.1-1.7,0c-0.8-0.2-1.4-0.7-1.7-1.5
	c-0.5-1.1-0.4-2.6,0.3-3.9c0.5-1,0.6-1.6,0.3-1.9c-0.1-0.1-0.3-0.3-0.8-0.2c-0.5,0.1-1.2,0.6-1.5,0.9c-1.5,1.4-2.2,3.4-1.8,5.1
	c0.5,1.9,2.2,3.4,4.9,4.1c1.6,0.4,3.2,0.4,4.8,0.1c5.5-1.2,10.6-6.9,15-16.5c1,0.2,2,0.3,3,0.4c0.1,0,0.3,0,0.4,0
	c-1.3,2.6-2.3,5.8-2.3,7.8c-0.1,4.9,3.4,9,8,9.1c0.4,0,0.8,0,1.2-0.1c1.8-0.4,3.9-1.9,5.7-4c0.6,0.1,1.2,0.1,1.8,0.1
	c1.2,0,2.4-0.1,3.6-0.3c2.7-0.6,7-4.2,9.7-6.7c1.7-1.6,2.9-3.8,3.3-6.1c0.1-1,0.2-1.9,0.2-2.7c1,0.1,2.2,0.1,3.2,0
	c1-0.1,1.9-0.3,2.9-0.5c0.4-0.1,0.7-0.2,1.1-0.3c-0.7,1.7-2.2,6.5-2.3,11.4c-0.1,3.9,0.9,6.8,2.9,8.4c1.6,1.3,3.9,1.8,6.5,1.2
	c0.1,0,0.3-0.1,0.4-0.1c7.3-2,11.8-14.1,13.6-20c0.3,0.6,0.6,1.2,1,1.7c2.9,4.3,6.9,4.4,9.7,3.8c2.2-0.5,3.8-1.5,4.2-1.8
	c5.6-3.8,8.5-10.7,8-19.7c0.7,0.5,1.5,1.1,2.1,1.6c4.1,3.2,7.5,4.5,10.1,3.9c1.1-0.3,2.1-0.9,2.9-1.9c1.8-2.3,1.5-6.7-1.1-13.4
	c0.9-0.6,1.6-1.3,2.3-2.1c2.6-3.3,3.2-7.9,1.7-12.3c0.7,0.3,1.3,0.6,2,0.8c2,0.6,3.9,0.8,5.6,0.4c4.2-1,6.8-4.7,7.9-7.9
	c0.7-2.3,0.8-4.7,0.3-7.2C390.1,105.8,386.3,101.2,380.9,99z M56.6,19.5c0.9-1.9,2.1-3,2.6-3c0.1,0,0.1,0,0.1,0.1
	c0.5,0.6,0.1,3.6-1.8,7.5c-0.7,1.4-2,3.5-3.4,5.5c-0.1,0.1-0.2,0-0.2-0.1C54.5,24.2,56.1,20.5,56.6,19.5z M209.3,93
	c8.2-6.6,14.6-7.5,18-4.3c3.5,3.3-4.6,7.1-8.9,8c-4,0.8-8.8,1-13.3,0.8C206.7,95.5,208.2,94,209.3,93z M93,34.4
	c0.4-2.1,1.3-1.9,1.6-1.9l0.1,0c0.2,0,0.3,0.1,0.3,0.3c0.4,0.8-0.4,3-1.9,5.9C92.8,37.4,92.7,35.8,93,34.4z M33.8,35.8
	c0.8,1.6,2,3.9,3.2,6.2l0,0.1c-2.2,1.3-4.3,2.3-6.6,3.1c-0.2,0.1-0.5-0.1-0.5-0.3c-0.3-3.2-0.6-6.2-0.9-8.8c-0.5-4-0.9-7.6-0.9-10.4
	c0-0.1,0.1-0.1,0.1,0L33.8,35.8z M182.6,127.6c-9.4-1.7-16.1-8.8-15.9-13.9c0.3-10.1,14.6-14.3,23.3-14.1
	C185.5,107.5,182.5,118.4,182.6,127.6z M153.9,113.1c0.2,1.3,0.5,2.5,1,3.7c3.2,7.4-1.2,13.1-7.1,17.3c-18.4,13.2-38.6,25.3-61,28.4
	c-15.8,2.2-32.4-0.4-46.2-8.4c-13.8-8-24.6-21.5-28.1-37.1c-2.6-11.4-1.1-23.7,4.3-34.1c6-11.7,14.4-19.7,13.6-34c0-0.1,0-0.3,0-0.4
	c0-0.1,0.1-0.3,0.2-0.3c2.5-0.8,5.1-2.1,7.5-3.6c0.2-0.1,0.4-0.1,0.5,0.1c1.1,2,2.5,4.4,3.6,5.9c0.3,0.4,0.6,0.8,0.8,1.2
	c1.1,1.5,1.8,2.5,3.2,2.7c0.9,0.1,1.9-0.1,3.4-0.6c2.2-0.8,3.5-1.6,3.8-2.6c0.1-0.2,0.3-0.3,0.5-0.2c0.9,0.4,1.9,0.7,2.9,0.8
	c1.3,0.2,2.3,0.1,3,0c2.5-0.4,5-2.8,7.6-7.3c0.6,1.2,1.6,1.9,2.9,2.1c0.1,0,0.2,0,0.2,0c3.6,0.5,7.7-3.5,9.4-5.8
	c-0.1,2.7,0.2,7.8,4.7,8.7c0.1,0,0.1,0,0.2,0c2.5,0.3,5.5-2.1,8.4-6.6c1.1,1,2.4,1.6,4,1.9c0.2,0,0.4,0.1,0.6,0.1
	c1.9,0.3,3.9,0,5.7-0.7c-1,4.4,1.2,7.4,3.8,8.6c0.5,0.2,1,0.3,1.6,0.4c3,0.4,7.2-0.6,10.3-2.4c-1.6,2.9-2.1,5.5-1.5,7.6
	c0.5,1.7,1.8,3,3.9,3.9c0.6,0.2,1.2,0.4,1.9,0.5c2.6,0.4,6-0.5,10-2.5c-2.2,4-0.4,6.6,1.7,8.1c0.6,0.4,1.5,0.7,2.5,0.9
	c2.9,0.4,7.3-0.5,11-2.2c-1.3,1.2-2.5,2.5-3.9,4c-1.1,1.1-2.2,2.3-3.5,3.6c-2.5,0-6.1,0.1-8.9,1.1c-6.3,2.2-9,6.7-8.5,9.1
	c0.1,0.8,1,4.5,5.5,5.1c1.1,0.1,2.2,0.1,3.5-0.2c3.5-0.7,7.3-3.3,11.8-7.9c3,1.8,11.9,5.5,13.9,5.9c0.2,0,0.4,0.1,0.6,0.1
	c2.8,0.4,5.1-0.2,6.3-1.6c0.8-0.9,1-2,0.6-3.3c-0.2-0.7-0.4-1.4-0.5-2c-0.3-1.2-1-2.3-1.1-4.2c-0.3-3.8,7.6-2.4,9.6-0.6
	c1.7,1.6,10.4,13.1,17.1,19.3c0,0,0.1,0.1,0.2,0.1C179.6,94.1,151.5,96.8,153.9,113.1z M139.2,76.7
	C139.2,76.8,139.1,76.8,139.2,76.7c-0.5,0.5-0.9,0.9-1.4,1.4c-3.4,3.4-7.7,7.6-10,7.3c-0.6-0.1-1.1-0.5-1.3-1.3
	c-0.5-1.7,3.9-5.2,6.4-6.2C134.6,77.2,136.7,76.9,139.2,76.7z M282.5,182.4c-0.2,0-0.4,0.1-0.5,0.1c-0.7,0-1.2-0.3-1.5-1
	c-0.3-0.6-0.4-1.4-0.4-2.5c0-0.4,0.1-0.9,0.2-1.5c1.4,1.3,3.1,2.3,4.9,2.9C284.3,181.5,283.4,182.2,282.5,182.4z M286.6,178.5
	c-2.1-0.8-3.9-2.3-5.1-4.5l0.3-0.7c0.6-1.5,1.1-2.7,1.1-3.6c0-1.1-0.8-1.7-1.7-2.5l-0.5-0.4c-0.3-0.3-0.6-0.6-0.8-0.9l-0.1-0.1
	c0.3-2,1.7-4.1,3.9-4.6c0.3-0.1,0.7-0.1,1.1-0.1c1.5,0,2.8,0.8,3.8,2c1,1.4,1.5,3.3,1.4,5.6C289.7,171.5,288.4,175.6,286.6,178.5z
	 M340,156c0.1-1.8,1.1-4.3,2.1-4.5c0.1,0,0.2,0,0.4,0c0.3,0.1,0.6,0.5,0.7,0.9c0.4,1.1,0.2,2.9-0.4,4.2c-0.5,1.2-1.2,2.5-2.5,3.8
	C339.7,158.6,339.8,157.1,340,156z M377.3,117.8c-1.6-1.1-2.4-2.4-3-3.4c-0.9-1.3-1.7-3.5-1.3-4.6c0.1-0.2,0.2-0.4,0.4-0.4l0,0
	c0.3-0.1,0.7,0,1.1,0.3c1,0.6,2,2.1,2.3,3.6C377.2,114.5,377.5,116,377.3,117.8z M389.1,116.1c-0.6,1.9-2.1,3.2-4.2,3.7
	c-1.3,0.3-2.8,0.2-4.3-0.3c-0.5-0.2-1-0.4-1.5-0.6c0.2-1.4,0.3-2.9,0.2-4.4c-0.4-3.2-1.6-5.8-3.6-7.2c-0.9-0.6-2-0.8-3.3-0.5
	c-0.5,0.1-1.1,0.3-1.6,0.6c-2.2,1.2-3.6,3.6-3.6,6.1c0,1.9,0.6,6.7,5.3,10.1c0,0,0,0.1,0,0.1c2,4.7,1.9,9.4-0.4,12.3
	c-0.5,0.7-1.1,1.2-1.7,1.5c-1.4-3.2-3.2-5.6-5.1-7.1c-1.1-0.8-2.3-1.1-3.6-0.8c-1.8,0.4-3.2,1.9-3.5,3.6c-0.4,2.1,0.9,4.3,3.4,6
	c2.2,1.4,4.7,2,7.1,1.4c0.1,0,0.2-0.1,0.3-0.1c1.6,4.1,2,7.7,1.6,8.3c0,0-0.1,0.1-0.2,0.1c-1.1,0.2-4.3-1.9-7.1-3.7
	c-2.4-1.6-4.8-3.1-6.3-3.7c-0.9-0.3-1.7-0.4-2.6-0.2c-0.8,0.2-1.6,0.6-2.6,1.2c-0.7,0.4-1.1,0.9-1.1,1.4c0,0.7,0.6,1.1,0.8,1.3
	c0.2,0.2,0.8,0.6,1.5,1.1c0.6,0.4,1.3,0.9,2,1.5c0.7,7.2-2,15.2-5.9,17.9c-0.6,0.4-1.2,0.7-1.9,0.8c-2.2,0.5-4.3-0.4-5.6-2.5
	c-0.3-0.5-0.6-0.9-0.8-1.4c1-0.9,2-2.1,2.9-3.4c1.7-2.8,2.3-5.6,1.7-7.9c-0.5-1.8-2.3-2.7-3.8-2.9c-0.9-0.1-1.8-0.1-2.6,0.1
	c-1.6,0.4-3,1.2-4,2.5c-0.9,1.2-3.8,5.7-1.9,11.7c-0.1,0.1-0.2,0.3-0.2,0.4c-2,7.4-7.1,18.3-11.2,19.4l-0.1,0
	c-0.6,0.1-1.1,0.1-1.4-0.2c-0.7-0.6-1-2-1-4.3c0-4.2,0.9-8.6,1.7-12.1l0.2-0.9c0.6-2.9,0.2-4.4-1.5-5.2c-0.9-0.4-1.8-0.5-2.8-0.3
	c-0.5,0.1-1,0.3-1.5,0.5c-0.5,0.2-1,0.4-1.6,0.5c-0.8,0.2-1.7,0.5-2.7,0.7c-2.1,0.5-3.8,0.7-5.2,0.6c-0.2-1.3-0.6-2.2-1.1-2.7
	c-0.8-0.7-1.6-1-2.5-0.8c-0.1,0-0.2,0.1-0.4,0.1c-0.9,0.3-1.5,0.8-1.8,1.5c-0.3,0.6-0.2,1.4,0.1,2.3c0.7,1.6,2.6,2.5,3,2.6
	c0.2,0.1,0.4,0.1,0.7,0.2c0.1,0,0.2,0,0.3,0.1c0,0,0,0,0,0c0,2.9-1.3,5.6-3.4,7.6c-2.6,2.5-6.4,5.8-8.8,6.3
	c-0.8,0.2-1.6,0.3-2.4,0.2c-0.2,0-0.5,0-0.7-0.1c2.3-3.3,3.6-7.1,3.7-10.8c0.2-6.3-3.2-10.2-9.1-10.4c-0.6,0-1.3,0-1.9,0.2
	c-3.5,0.8-6,3.9-6.1,7.3c0,0.2,0,0.5,0,0.7c-0.1,0-0.2-0.1-0.4-0.1c-0.9-0.2-1.8-0.4-2.6-0.6c2.2-4.9,3.8-9.2,4.9-12.7
	c2.3,0.8,3.8,1.4,4.4,1.5l0.7,0.1c1.3,0.2,2.4,0.4,3.3,0.2c0.3-0.1,0.5-0.2,0.8-0.3c1.1-0.6,2.9-1.7,2.8-2.5c0-0.2-0.2-0.4-0.6-0.5
	c-0.8-0.1-2.8-0.7-5.9-1.5c-2-0.5-4.6-1.2-7.6-2c-0.6-0.2-1.4-0.4-2.2-0.6c-2.1-0.6-4.7-1.4-7.3-1.9c-5-1-9.7-3-13.9-6
	c-15.1-10.8-29.5-23.8-42.1-35.6c-0.5-0.5-0.1-1.3,0.6-1.2c6.2,0.8,11.9,1.1,16.6-0.7c7.8-2.9,10.8-7.6,3.6-14.4
	c-2.2-2.1-5.5-3.2-7.5-5.1c17.1-21.7,50-34.5,76.5-37.7c19.2-2.3,39.7,0,55.5,11.1c9.8,6.9,17.7,17.6,29.5,21.1
	c2.4,0.7,4.4,1.4,4.9,1.7c0.9,0.6,1.4,1.4,1.5,2.1c0.2,2.1-1.7,2.9-2.9,3.2c-0.6,0.1-1.4,0.2-2.1,0.2c-1.9-0.1-6.6-0.4-10.6-2.2
	c-1.3-0.6-2.2-0.9-3.1-0.7c-0.7,0.2-1.4,0.6-2.2,1.3c-1.7,1.4-1.5,3.4-1.2,5.6l0.1,0.5c0.1,0.9,0.2,1.9,0.3,3
	c0.2,1.8,0.3,3.7,0.5,5.1l-0.1,0c-0.6,0-1,0-1.6,0.1l-0.2,0c-0.8,0.2-2.2,0.5-1.8,2.5c0.2,0.9,0.6,1.6,1.2,2
	c0.5,0.3,1.3,0.4,2.1,0.3l0.2,0c1.4-0.4,2.4-1.6,2.8-2.3c2.2,0,4.9,0.6,7.8,1.7c3.2,1.2,5.9,3.6,7.3,6.6
	C389.2,110.6,389.8,114.1,389.1,116.1z M368.2,138.1c-1.2-0.1-2.7-0.6-4.2-1.6c-2.7-1.7-2.6-3.2-2.6-3.6c0.1-0.5,0.4-0.8,0.9-1
	c0.6-0.1,1.3,0.1,1.9,0.6C365.6,133.6,366.6,134.8,368.2,138.1z"/>
</svg>
