<?xml version="1.0" encoding="utf-8"?>
<!-- Generator: Adobe Illustrator 16.0.0, SVG Export Plug-In . SVG Version: 6.00 Build 0)  -->
<!DOCTYPE svg PUBLIC "-//W3C//DTD SVG 1.1//EN" "http://www.w3.org/Graphics/SVG/1.1/DTD/svg11.dtd">
<svg version="1.1" id="v1" xmlns="http://www.w3.org/2000/svg" xmlns:xlink="http://www.w3.org/1999/xlink" x="0px" y="0px"
	 width="432px" height="197px" viewBox="0 0 432 197" enable-background="new 0 0 432 197" xml:space="preserve">
<line fill="#009CB9" stroke="#009CB9" stroke-width="2" stroke-miterlimit="10" x1="47" y1="70" x2="55" y2="70"/>
<line fill="#009CB9" stroke="#009CB9" stroke-width="2" stroke-miterlimit="10" x1="46" y1="128" x2="54" y2="128"/>
<line fill="#009CB9" stroke="#009CB9" stroke-width="2" stroke-miterlimit="10" x1="58" y1="99" x2="66" y2="99"/>
<line fill="none" stroke="#009CB9" stroke-width="2" stroke-miterlimit="10" x1="39.833" y1="81" x2="42.833" y2="88.833"/>
<line fill="none" stroke="#009CB9" stroke-width="2" stroke-miterlimit="10" x1="38.833" y1="117.5" x2="42.667" y2="110"/>
<line fill="none" stroke="#009CB9" stroke-width="2" stroke-miterlimit="10" x1="69" y1="116.833" x2="73" y2="110"/>
<line fill="none" stroke="#009CB9" stroke-width="2" stroke-miterlimit="10" x1="69.667" y1="137.5" x2="72.833" y2="144.667"/>
<line fill="none" stroke="#009CB9" stroke-width="2" stroke-miterlimit="10" x1="70" y1="81" x2="73" y2="88.833"/>
<line fill="none" stroke="#009CB9" stroke-width="2" stroke-miterlimit="10" x1="69.333" y1="59.667" x2="73.667" y2="51.833"/>
<line fill="none" stroke="#93C83E" stroke-width="2" stroke-miterlimit="10" x1="88" y1="99" x2="97" y2="99"/>
<line fill="none" stroke="#93C83E" stroke-width="2" stroke-miterlimit="10" x1="103" y1="127" x2="112" y2="127"/>
<line fill="none" stroke="#93C83E" stroke-width="2" stroke-miterlimit="10" x1="101" y1="71" x2="110" y2="71"/>
<line fill="none" stroke="#93C83E" stroke-width="2" stroke-miterlimit="10" x1="82.333" y1="51.833" x2="86.5" y2="60.167"/>
<line fill="none" stroke="#93C83E" stroke-width="2" stroke-miterlimit="10" x1="117.333" y1="82.167" x2="113" y2="89.833"/>
<line fill="none" stroke="#93C83E" stroke-width="2" stroke-miterlimit="10" x1="113.167" y1="109.333" x2="116.833" y2="116.667"/>
<line fill="none" stroke="#93C83E" stroke-width="2" stroke-miterlimit="10" x1="86.833" y1="81.167" x2="82.833" y2="89.833"/>
<line fill="none" stroke="#93C83E" stroke-width="2" stroke-miterlimit="10" x1="82.833" y1="144.167" x2="87" y2="136.5"/>
<line fill="none" stroke="#93C83E" stroke-width="2" stroke-miterlimit="10" x1="82.667" y1="109.167" x2="86.333" y2="116.667"/>
<ellipse fill="#81B85E" cx="78" cy="41.5" rx="11" ry="11.5"/>
<ellipse fill="#41ACC9" cx="36" cy="70.5" rx="11" ry="11.5"/>
<ellipse fill="#41ACC9" cx="36" cy="128.5" rx="11" ry="11.5"/>
<ellipse fill="#0091AC" cx="47" cy="99.5" rx="11" ry="11.5"/>
<ellipse fill="#0091AC" cx="66" cy="70.5" rx="11" ry="11.5"/>
<ellipse fill="#0091AC" cx="65" cy="127.5" rx="11" ry="11.5"/>
<ellipse fill="#81B85E" cx="78" cy="154.5" rx="11" ry="11.5"/>
<ellipse fill="#36A04C" cx="77" cy="99.5" rx="11" ry="11.5"/>
<ellipse fill="#93C83E" cx="91" cy="70.5" rx="11" ry="11.5"/>
<ellipse fill="#93C83E" cx="92" cy="126.5" rx="11" ry="11.5"/>
<ellipse fill="#36A04C" cx="108" cy="99.5" rx="11" ry="11.5"/>
<ellipse fill="#B2D33B" cx="121" cy="71.5" rx="11" ry="11.5"/>
<ellipse fill="#B2D33B" cx="122" cy="126.5" rx="11" ry="11.5"/>
</svg>
